# xmcd
#
# Track frame offsets: 
#        150
#        18905
#        43007
#        55861
#        78693
#        96385
#        110424
#        129522
#        144224
#        176704
#        192516
#        213057
#        235465
#
# Disc length: 3440 seconds
#
# Revision: 0
# Processed by: cddbd v1.5.2PL0 Copyright (c) Steve Scherf et al.
# Submitted via: ExactAudioCopy v0.99pb3
#
DISCID=b40d6e0d
DTITLE=John Trudell - Madness and Moremes
DYEAR=2007
DGENRE=Native American
TTITLE0=The Moremes
TTITLE1=Francis Brown
TTITLE2=Bringing Much
TTITLE3=Tikaan
TTITLE4=Reason to This
TTITLE5=Took a Little Walk
TTITLE6=The Beast
TTITLE7=My Fire
TTITLE8=Cry Your Tears
TTITLE9=With Yesses
TTITLE10=Iktomi
TTITLE11=Make a Chant
TTITLE12=Baby Boom Che
EXTD=
EXTT0=
EXTT1=
EXTT2=
EXTT3=
EXTT4=
EXTT5=
EXTT6=
EXTT7=
EXTT8=
EXTT9=
EXTT10=
EXTT11=
EXTT12=
PLAYORDER=
